# xmcd
#
# Track frame offsets: 
#        150
#        22583
#        37874
#        51493
#        73345
#        87583
#        103822
#        126822
#        143526
#        161596
#        176776
#        192757
#        216695
#        240272
#        250222
#        262640
#        289645
#        302907
#
# Disc length: 4250 seconds
#
# Revision: 1
# Processed by: cddbd v1.5.2PL0 Copyright (c) Steve Scherf et al.
# Submitted via: ExactAudioCopyFreeDBPlugin 1.0
#
DISCID=fe109812
DTITLE=Peter LeMarc - Bok Med Blanka Sidor {2010 "Starkare An Ord" Box
DTITLE=Edition}
DYEAR=1995
DGENRE=Rock
TTITLE0=Fyra Steg I Det Blå
TTITLE1=Lyckliga Ögon
TTITLE2=En Sån Som Jag
TTITLE3=Blå Taxibil
TTITLE4=Fruset Vatten
TTITLE5=Tess
TTITLE6=Aldrig Äldre Än Så Här
TTITLE7=Stolt
TTITLE8=Vad Skulle Du Med Mej Till?
TTITLE9=Dessa Tankar På Dej
TTITLE10=Gå Ingenstans Utan Mej
TTITLE11=Pärlemor
TTITLE12=Ett Sätt Att Älska, Tusen Sätt Att Gå
TTITLE13=Bok Med Blanka Sidor
TTITLE14=Mannen Som Har Allt (akustisk version) (extranumer)
TTITLE15=Mannen Som Har Allt (Orkesterversion) (extranumer)
TTITLE16=Bok Med Blanka Sidor (Orkesterversion) (extranumer)
TTITLE17=Ilas Tema (extranumer)
EXTD=
EXTT0=
EXTT1=
EXTT2=
EXTT3=
EXTT4=
EXTT5=
EXTT6=
EXTT7=
EXTT8=
EXTT9=
EXTT10=
EXTT11=
EXTT12=
EXTT13=
EXTT14=
EXTT15=
EXTT16=
EXTT17=
PLAYORDER=
